<svg width="32" height="32" viewBox="0 0 32 32" fill="none" xmlns="http://www.w3.org/2000/svg">
<path fill-rule="evenodd" clip-rule="evenodd" d="M14.5648 0.037865C11.4726 0.340606 8.61475 1.47977 6.10901 3.40833C4.88878 4.34748 3.30412 6.11246 2.38836 7.55224C1.99287 8.17406 1.22299 9.74974 0.947201 10.5017C0.638837 11.3426 0.31018 12.6275 0.14845 13.6246C-0.0494834 14.8449 -0.0494834 17.1619 0.14845 18.3823C0.428314 20.1075 0.871034 21.5021 1.62882 23.0461C2.45676 24.7329 3.31765 25.9286 4.69623 27.3065C6.07487 28.6842 7.27125 29.5446 8.95901 30.3721C10.5039 31.1295 11.8993 31.5719 13.6255 31.8516C14.8465 32.0495 17.1649 32.0495 18.3859 31.8516C20.1121 31.5719 21.5075 31.1295 23.0524 30.3721C24.7402 29.5446 25.9365 28.6842 27.3152 27.3065C28.6938 25.9286 29.5546 24.7329 30.3826 23.0461C30.9325 21.9257 31.2091 21.1914 31.5054 20.0653C31.8999 18.5658 32 17.7438 32 16.0034C32 14.2631 31.8999 13.4411 31.5054 11.9415C31.2091 10.8155 30.9325 10.0812 30.3826 8.96077C29.5546 7.27397 28.6938 6.07828 27.3152 4.70042C25.9365 3.32263 24.7402 2.46223 23.0524 1.63477C21.509 0.878102 20.086 0.426683 18.4172 0.16432C17.4965 0.0195853 15.4406 -0.0478991 14.5648 0.037865ZM18.0101 1.45729C20.1312 1.75872 22.1556 2.50699 23.9606 3.65667C25.5423 4.66405 27.3516 6.4723 28.3595 8.05305C29.2616 9.46784 29.9974 11.2238 30.3442 12.7899C30.6009 13.9492 30.6768 14.6823 30.6768 16.0034C30.6768 17.7269 30.4934 18.9296 29.9958 20.469C29.2461 22.7882 28.1224 24.6173 26.3734 26.3652C24.6245 28.1133 22.7943 29.2363 20.4738 29.9855C18.9335 30.4829 17.7302 30.6661 16.0057 30.6661C14.2812 30.6661 13.0779 30.4829 11.5376 29.9855C9.21707 29.2363 7.38694 28.1133 5.63798 26.3652C3.29823 24.0269 1.95278 21.338 1.43965 17.9754C1.2959 17.033 1.2959 14.9738 1.43965 14.0315C1.77884 11.8089 2.50035 9.85898 3.65188 8.05305C4.65984 6.4723 6.46911 4.66405 8.05077 3.65667C11.0274 1.76078 14.5978 0.972318 18.0101 1.45729ZM12.3925 9.39529C11.9752 9.57965 11.9969 9.21575 11.9972 16.016C11.9974 21.9726 12.0012 22.176 12.1176 22.3667C12.2934 22.6549 12.6052 22.7429 12.9309 22.596C13.4175 22.3767 22.5095 16.4843 22.5882 16.3373C22.6878 16.1514 22.6879 15.8558 22.5885 15.6701C22.5279 15.557 14.96 10.6258 13.2183 9.56462C12.8202 9.32198 12.6413 9.28536 12.3925 9.39529ZM17.0958 13.6246C19.1111 14.9157 20.7601 15.9862 20.7601 16.0034C20.7601 16.0353 13.4809 20.7126 13.3719 20.7507C13.3345 20.7638 13.3123 18.9952 13.3123 16.0034C13.3123 13.0117 13.3345 11.2431 13.3719 11.2562C13.4047 11.2676 15.0805 12.3334 17.0958 13.6246Z" fill="white"/>
</svg>
