<svg xmlns="http://www.w3.org/2000/svg" xmlns:xlink="http://www.w3.org/1999/xlink"><symbol id="arrow-double-sym" viewBox="0 0 24 24"><title>arrow-double</title><path fill-rule="evenodd" clip-rule="evenodd" d="M4 12a1 1 0 0 1 1-1h14a1 1 0 1 1 0 2H5a1 1 0 0 1-1-1Z"/><path fill-rule="evenodd" clip-rule="evenodd" d="M11.293 4.293a1 1 0 0 1 1.414 0l7 7a1 1 0 0 1 0 1.414l-7 7a1 1 0 0 1-1.414-1.414L17.586 12l-6.293-6.293a1 1 0 0 1 0-1.414ZM23 4a1 1 0 0 1 1 1v14a1 1 0 1 1-2 0V5a1 1 0 0 1 1-1Z"/></symbol><use xlink:href="#arrow-double-sym" width="24" height="24"/><view id="arrow-double" viewBox="0 0 24 24"/><symbol id="arrow-linear-sym" viewBox="0 0 24 24"><title>arrow-linear</title><path fill-rule="evenodd" clip-rule="evenodd" d="M11.293 4.293a1 1 0 0 1 1.414 0l7 7a1 1 0 0 1 0 1.414l-7 7a1 1 0 0 1-1.414-1.414L16.586 13H5a1 1 0 1 1 0-2h11.586l-5.293-5.293a1 1 0 0 1 0-1.414Z"/></symbol><use xlink:href="#arrow-linear-sym" y="24" width="24" height="24"/><view id="arrow-linear" viewBox="0 24 24 24"/><symbol id="arrow-triangle-sym" viewBox="0 0 24 24"><title>arrow-triangle</title><path fill-rule="evenodd" clip-rule="evenodd" d="M8.293 5.293a1 1 0 0 1 1.414 0l6 6a1 1 0 0 1 0 1.414l-6 6a1 1 0 0 1-1.414-1.414L13.586 12 8.293 6.707a1 1 0 0 1 0-1.414Z"/></symbol><use xlink:href="#arrow-triangle-sym" y="48" width="24" height="24"/><view id="arrow-triangle" viewBox="0 48 24 24"/></svg>