<svg width="62" height="62" viewBox="0 0 62 62" fill="none" xmlns="http://www.w3.org/2000/svg">
<path d="M28.8905 60.7494C28.6714 60.6164 23.0772 57.1801 16.4589 53.1131C5.01415 46.0802 4.41604 45.7062 4.22748 45.465C4.01647 45.1951 3.84279 44.8782 3.7265 44.5506C3.64437 44.3194 0.956506 13.6791 1.00054 13.4759C1.06104 13.1964 1.22578 12.9743 1.42713 12.9008C1.57573 12.8465 1.64548 12.8412 1.71859 12.8786C1.77141 12.9056 1.85516 12.9277 1.90463 12.9277C1.95414 12.9277 2.34151 13.0866 2.76543 13.2807C3.1894 13.4748 9.18303 16.2071 16.0846 19.3524C22.9863 22.4977 28.6753 25.1066 28.727 25.1499C28.7787 25.1932 28.8845 25.2603 28.9621 25.299C29.1219 25.3787 29.3155 25.566 29.5672 25.8843C29.7583 26.126 29.8638 26.3305 30.0225 26.7668L30.1288 27.0589L30.168 34.0683C30.1897 37.9234 30.2018 45.4653 30.1954 50.8279L30.184 60.5782L30.0664 60.7455C29.9254 60.9463 29.7851 61.0092 29.5014 60.999C29.3329 60.9928 29.2064 60.9412 28.8904 60.7494H28.8905ZM27.4699 56.8775L27.5756 56.8232V55.2089C27.5756 53.6683 27.5711 53.5828 27.4747 53.3346C27.4191 53.1916 27.3211 53.0139 27.2567 52.9398C27.1078 52.7682 24.2116 51.0751 24.067 51.0751C24.003 51.0751 23.9269 51.1219 23.8801 51.19C23.8085 51.2946 23.8044 51.4516 23.835 52.9284C23.8685 54.5494 23.8688 54.5522 23.9891 54.7871C24.0554 54.9165 24.1762 55.087 24.2577 55.1659C24.3392 55.2449 25.0171 55.6776 25.7643 56.1276C27.1511 56.9629 27.2332 56.999 27.4699 56.8775V56.8775ZM27.4201 49.1137C27.4843 49.0201 27.4927 48.7837 27.4849 47.2952C27.4724 44.9302 27.596 45.1364 25.5126 44.0014C24.7529 43.5874 24.069 43.2412 23.9931 43.232C23.8929 43.2199 23.8225 43.2464 23.7365 43.3286L23.618 43.4419L23.6507 45.113C23.6758 46.3887 23.6998 46.8319 23.7523 46.9863C23.8986 47.4162 23.9632 47.4661 25.5007 48.3375C26.2929 48.7865 26.9819 49.1782 27.0318 49.208C27.1584 49.2836 27.3326 49.2413 27.42 49.1137H27.4201ZM8.59284 45.4899C8.62861 45.4149 8.61034 44.9539 8.52617 43.8162C8.40633 42.1938 8.37673 42.032 8.15042 41.7625C8.11388 41.719 7.51837 41.3525 6.827 40.948C5.96518 40.4438 5.54097 40.2198 5.47773 40.2357C5.28802 40.2831 5.28088 40.4199 5.39051 41.9089C5.44782 42.6874 5.51556 43.395 5.54105 43.4815C5.61381 43.7284 5.76858 44.004 5.90352 44.1268C5.97148 44.1886 6.53267 44.5439 7.1506 44.9163C8.33535 45.6303 8.49557 45.694 8.59284 45.4899V45.4899ZM27.2092 41.098C27.4226 41.005 27.429 40.938 27.404 39.0428C27.3911 38.0614 27.3631 37.218 27.3419 37.1686C27.3205 37.1192 27.2777 37.014 27.2466 36.9349C27.2154 36.8558 27.1216 36.7244 27.0378 36.6429C26.8313 36.4421 23.8631 34.9323 23.714 34.9522C23.6536 34.9603 23.5662 35.0175 23.5196 35.0793C23.4402 35.1847 23.4369 35.3005 23.4667 36.9664C23.4956 38.5722 23.5072 38.7638 23.5905 38.9783C23.7589 39.4124 23.9825 39.5784 25.4491 40.3576C26.1794 40.7457 26.8304 41.0688 26.8958 41.0756C26.9612 41.0825 27.0281 41.1009 27.0445 41.1166C27.0829 41.1533 27.0822 41.1534 27.2092 41.098V41.098ZM7.94922 38.2633C8.01364 38.2353 8.07826 38.1826 8.09287 38.1463C8.13595 38.0389 7.88495 34.7782 7.8228 34.638C7.7916 34.5675 7.69202 34.4174 7.60156 34.3043C7.46342 34.1317 7.24905 33.9955 6.26436 33.4545C5.61941 33.1001 5.04836 32.8097 4.99543 32.8092C4.82639 32.8073 4.74643 32.871 4.7147 33.0327C4.66614 33.2802 4.91216 36.1444 5.00148 36.3714C5.15685 36.7664 5.27033 36.855 6.57263 37.5989C7.25487 37.9885 7.81732 38.3089 7.82257 38.3108C7.8279 38.3127 7.88483 38.2914 7.94922 38.2633V38.2633ZM27.2248 32.4077L27.3377 32.2662L27.308 30.3235C27.2916 29.2549 27.2606 28.3702 27.2389 28.3574C27.1835 28.2077 27.0963 28.0605 27.0234 27.9378L26.8471 27.6927L25.24 26.9379C23.4954 26.1185 23.4997 26.1198 23.3178 26.3851C23.2444 26.4923 23.2407 26.6552 23.2721 28.3957L23.3064 30.2896L23.4358 30.5625C23.507 30.7126 23.6269 30.8926 23.7023 30.9624C23.8983 31.1442 26.8085 32.5575 26.9774 32.5529C27.0703 32.5503 27.1467 32.5055 27.2248 32.4077V32.4077ZM7.46056 30.5411C7.57815 30.4287 7.57892 30.4937 7.43659 28.5277C7.30983 26.7791 7.28533 26.6563 7.01149 26.3945C6.86285 26.2524 4.52089 25.057 4.33442 25.0281C4.20108 25.0074 4.183 25.02 4.11896 25.1785C4.0556 25.3353 4.06127 25.5012 4.17969 26.9541C4.32559 28.7438 4.36315 28.9128 4.68555 29.2304C4.87605 29.4181 6.89059 30.5258 7.15529 30.5884C7.36322 30.6376 7.35914 30.6383 7.46075 30.5411H7.46056ZM6.91592 22.448C6.98952 22.3289 6.98698 22.2152 6.87418 20.5787C6.8007 19.5127 6.72717 18.7482 6.68482 18.6092C6.54242 18.1421 6.45604 18.0796 5.01872 17.4027C4.22681 17.0297 3.68646 16.8 3.64068 16.8168C3.49638 16.8697 3.40905 17.0627 3.41229 17.3216C3.41952 17.905 3.66466 20.5573 3.72798 20.7382C3.82228 21.0075 3.90844 21.1576 4.029 21.2627C4.202 21.4136 6.58204 22.5778 6.71431 22.5762C6.79876 22.5751 6.86223 22.5349 6.91592 22.448V22.448Z" stroke="white" stroke-width="0.761091" stroke-linecap="round" stroke-linejoin="round"/>
<path d="M33.1095 60.7494C33.3286 60.6164 38.9228 57.1801 45.5411 53.1131C56.9858 46.0802 57.584 45.7062 57.7725 45.465C57.9835 45.1951 58.1572 44.8782 58.2735 44.5506C58.3556 44.3194 61.0435 13.6791 60.9995 13.4759C60.939 13.1964 60.7742 12.9743 60.5729 12.9008C60.4243 12.8465 60.3545 12.8412 60.2814 12.8786C60.2286 12.9056 60.1448 12.9277 60.0954 12.9277C60.0459 12.9277 59.6585 13.0866 59.2346 13.2807C58.8106 13.4748 52.817 16.2071 45.9154 19.3524C39.0137 22.4977 33.3247 25.1066 33.273 25.1499C33.2213 25.1932 33.1155 25.2603 33.0379 25.299C32.8781 25.3787 32.6845 25.566 32.4328 25.8843C32.2417 26.126 32.1362 26.3305 31.9775 26.7668L31.8712 27.0589L31.832 34.0683C31.8103 37.9234 31.7982 45.4653 31.8046 50.8279L31.816 60.5782L31.9336 60.7455C32.0746 60.9463 32.2149 61.0092 32.4986 60.999C32.6671 60.9928 32.7936 60.9412 33.1096 60.7494H33.1095ZM34.5301 56.8775L34.4244 56.8232V55.2089C34.4244 53.6683 34.4289 53.5828 34.5253 53.3346C34.5809 53.1916 34.6789 53.0139 34.7433 52.9398C34.8922 52.7682 37.7884 51.0751 37.933 51.0751C37.997 51.0751 38.0731 51.1219 38.1199 51.19C38.1915 51.2946 38.1956 51.4516 38.165 52.9284C38.1315 54.5494 38.1312 54.5522 38.0109 54.7871C37.9446 54.9165 37.8238 55.087 37.7423 55.1659C37.6608 55.2449 36.9829 55.6776 36.2357 56.1276C34.8489 56.9629 34.7668 56.999 34.5301 56.8775V56.8775ZM34.5799 49.1137C34.5157 49.0201 34.5073 48.7837 34.5151 47.2952C34.5276 44.9302 34.404 45.1364 36.4874 44.0014C37.2471 43.5874 37.931 43.2412 38.0069 43.232C38.1071 43.2199 38.1775 43.2464 38.2635 43.3286L38.382 43.4419L38.3493 45.113C38.3242 46.3887 38.3002 46.8319 38.2477 46.9863C38.1014 47.4162 38.0368 47.4661 36.4993 48.3375C35.7071 48.7865 35.0181 49.1782 34.9682 49.208C34.8416 49.2836 34.6674 49.2413 34.58 49.1137H34.5799ZM53.4072 45.4899C53.3714 45.4149 53.3897 44.9539 53.4738 43.8162C53.5937 42.1938 53.6233 42.032 53.8496 41.7625C53.8861 41.719 54.4816 41.3525 55.173 40.948C56.0348 40.4438 56.459 40.2198 56.5223 40.2357C56.712 40.2831 56.7191 40.4199 56.6095 41.9089C56.5522 42.6874 56.4844 43.395 56.4589 43.4815C56.3862 43.7284 56.2314 44.004 56.0965 44.1268C56.0285 44.1886 55.4673 44.5439 54.8494 44.9163C53.6646 45.6303 53.5044 45.694 53.4072 45.4899V45.4899ZM34.7908 41.098C34.5774 41.005 34.571 40.938 34.596 39.0428C34.6089 38.0614 34.6369 37.218 34.6581 37.1686C34.6795 37.1192 34.7223 37.014 34.7534 36.9349C34.7846 36.8558 34.8784 36.7244 34.9622 36.6429C35.1687 36.4421 38.1369 34.9323 38.286 34.9522C38.3464 34.9603 38.4338 35.0175 38.4804 35.0793C38.5598 35.1847 38.5631 35.3005 38.5333 36.9664C38.5044 38.5722 38.4928 38.7638 38.4095 38.9783C38.2411 39.4124 38.0175 39.5784 36.5509 40.3576C35.8206 40.7457 35.1696 41.0688 35.1042 41.0756C35.0388 41.0825 34.9719 41.1009 34.9555 41.1166C34.9171 41.1533 34.9178 41.1534 34.7908 41.098V41.098ZM54.0508 38.2633C53.9864 38.2353 53.9217 38.1826 53.9071 38.1463C53.864 38.0389 54.1151 34.7782 54.1772 34.638C54.2084 34.5675 54.308 34.4174 54.3984 34.3043C54.5366 34.1317 54.7509 33.9955 55.7356 33.4545C56.3806 33.1001 56.9516 32.8097 57.0046 32.8092C57.1736 32.8073 57.2536 32.871 57.2853 33.0327C57.3339 33.2802 57.0878 36.1444 56.9985 36.3714C56.8431 36.7664 56.7297 36.855 55.4274 37.5989C54.7451 37.9885 54.1827 38.3089 54.1774 38.3108C54.1721 38.3127 54.1152 38.2914 54.0508 38.2633V38.2633ZM34.7752 32.4077L34.6623 32.2662L34.692 30.3235C34.7084 29.2549 34.7252 28.3616 34.7469 28.3488C34.8023 28.1991 34.9037 28.0605 34.9766 27.9378L35.1529 27.6927L36.76 26.9379C38.5046 26.1185 38.5003 26.1198 38.6822 26.3851C38.7556 26.4923 38.7593 26.6552 38.7279 28.3957L38.6936 30.2896L38.5642 30.5625C38.493 30.7126 38.3731 30.8926 38.2977 30.9624C38.1017 31.1442 35.1915 32.5575 35.0226 32.5529C34.9297 32.5503 34.8533 32.5055 34.7752 32.4077V32.4077ZM54.5394 30.5411C54.4218 30.4287 54.4211 30.4937 54.5634 28.5277C54.6902 26.7791 54.7147 26.6563 54.9885 26.3945C55.1372 26.2524 57.4791 25.057 57.6656 25.0281C57.7989 25.0074 57.817 25.02 57.881 25.1785C57.9444 25.3353 57.9387 25.5012 57.8203 26.9541C57.6744 28.7438 57.6369 28.9128 57.3145 29.2304C57.124 29.4181 55.1094 30.5258 54.8447 30.5884C54.6368 30.6376 54.6409 30.6383 54.5393 30.5411H54.5394ZM55.0841 22.448C55.0105 22.3289 55.013 22.2152 55.1258 20.5787C55.1993 19.5127 55.2728 18.7482 55.3152 18.6092C55.4576 18.1421 55.544 18.0796 56.9813 17.4027C57.7732 17.0297 58.3135 16.8 58.3593 16.8168C58.5036 16.8697 58.5909 17.0627 58.5877 17.3216C58.5805 17.905 58.3353 20.5573 58.272 20.7382C58.1777 21.0075 58.0916 21.1576 57.971 21.2627C57.798 21.4136 55.418 22.5778 55.2857 22.5762C55.2012 22.5751 55.1378 22.5349 55.0841 22.448V22.448Z" stroke="white" stroke-width="0.761091" stroke-linecap="round" stroke-linejoin="round"/>
<path d="M30.088 23.7079C29.9071 23.676 29.5899 23.5892 29.3831 23.5151C29.1763 23.441 26.2049 22.1173 22.7799 20.5735C19.3549 19.0297 13.4228 16.3569 9.59729 14.634C5.77186 12.9111 2.54076 11.4387 2.41709 11.3621C2.06253 11.1425 2.05874 10.8761 2.40682 10.6492C2.60607 10.5194 29.6545 1.11989 30.0798 1.03269C30.2168 1.0046 30.5776 0.992737 30.9313 1.00469L31.545 1.02543L45.2449 5.7771C52.7798 8.39053 58.9976 10.5599 59.0622 10.598C59.3526 10.769 59.4736 11.0384 59.3324 11.1996C59.3001 11.2365 59.1891 11.3197 59.0857 11.3845C58.9823 11.4493 53.5893 13.8923 47.1013 16.8135C40.6132 19.7347 34.6809 22.4074 33.9184 22.7528C33.1558 23.0981 32.3628 23.4416 32.156 23.5159C31.4702 23.7625 30.7672 23.8277 30.0881 23.7079L30.088 23.7079ZM32.7805 20.6866C33.8847 20.2042 34.4232 19.946 34.4718 19.8757C34.6213 19.6591 34.539 19.6098 32.7969 18.8739L31.169 18.1862L30.7696 18.1862L30.3701 18.1862L28.7426 18.8731C27.0636 19.5818 26.9586 19.6419 27.0292 19.8544C27.0505 19.9187 27.5117 20.1414 28.7143 20.6681L30.3701 21.3933L30.7653 21.3937L31.1606 21.394L32.7805 20.6863V20.6866ZM11.9254 11.6847C12.8161 11.3611 13.584 11.0603 13.6318 11.0162C13.6994 10.9539 13.7079 10.9166 13.6701 10.849C13.6393 10.7939 13.1258 10.5515 12.2672 10.1867L10.913 9.61137L10.49 9.63658C10.0948 9.66011 9.96658 9.69745 8.53957 10.2043C6.93531 10.7741 6.76251 10.8622 6.88565 11.0475C6.90582 11.0778 7.51351 11.3644 8.23616 11.6844L9.55004 12.2662L9.92803 12.2694C10.3024 12.2727 10.3215 12.2673 11.9254 11.6845V11.6847ZM53.3271 11.6724C54.0372 11.3578 54.6343 11.0762 54.6541 11.0465C54.7743 10.8656 54.5899 10.772 52.9941 10.2038C51.571 9.69704 51.4445 9.66015 51.049 9.63658L50.6261 9.61137L49.2719 10.1867C47.8828 10.7769 47.7427 10.8606 47.8968 11.0089C47.9387 11.0493 48.6968 11.3501 49.5815 11.6773L51.19 12.2722L51.613 12.2583L52.036 12.2445L53.3271 11.6724V11.6724ZM19.1846 9.0362C20.0117 8.73481 20.7149 8.46791 20.7472 8.44306C20.8618 8.35503 20.8085 8.23437 20.6062 8.12296C20.4964 8.06247 19.9095 7.81504 19.302 7.57313L18.1976 7.13328L17.7041 7.13072L17.2107 7.12817L15.8477 7.61538C14.2089 8.20121 14.0406 8.28786 14.238 8.44426C14.2987 8.49228 15.712 9.0858 16.5677 9.4226C17.3072 9.71368 17.3368 9.70932 19.1846 9.03606V9.0362ZM45.8611 9.06102C47.2455 8.49462 47.3597 8.43997 47.3597 8.34409C47.3597 8.23376 47.0837 8.11325 45.6913 7.6155L44.3284 7.1283L43.8349 7.13012L43.3414 7.13194L42.124 7.61932C41.4545 7.88737 40.8676 8.13867 40.8198 8.17775C40.71 8.26761 40.7075 8.43429 40.8153 8.47477C41.8696 8.87079 43.8487 9.57422 43.9534 9.59014C44.3536 9.65105 44.5547 9.59527 45.8611 9.06071V9.06102ZM26.0451 6.53334C26.8212 6.25047 27.4804 5.99997 27.5101 5.97667C27.5729 5.92729 27.542 5.77361 27.4633 5.74317C27.4336 5.73168 26.8098 5.49776 26.0773 5.22336C24.2981 4.55688 24.5052 4.55733 22.6446 5.2159C21.8851 5.48468 21.2232 5.74342 21.1736 5.79089C21.0865 5.87417 21.0863 5.88059 21.1679 5.97409C21.2815 6.10428 23.6151 7.01324 23.9548 7.05969C24.097 7.07911 24.3079 7.08433 24.4236 7.07134C24.5393 7.05832 25.269 6.81626 26.045 6.53339L26.0451 6.53334ZM38.9706 6.57818C39.6427 6.32017 40.2401 6.08015 40.2983 6.04477C40.3565 6.00941 40.4041 5.94094 40.4041 5.89266C40.4041 5.84437 40.3565 5.77527 40.2983 5.73909C40.2401 5.70289 39.5856 5.4598 38.8437 5.19886C37.0294 4.56079 37.2344 4.5593 35.4618 5.22334C34.7292 5.49774 34.1055 5.73168 34.0757 5.74317C33.9959 5.77399 33.9665 5.92748 34.0307 5.97838C34.1125 6.04329 36.8955 7.05107 37.0515 7.0723C37.4452 7.12584 37.7452 7.04861 38.9706 6.57815V6.57818ZM32.4936 4.18051C33.2366 3.90945 33.8591 3.66498 33.8771 3.63724C33.9751 3.48554 33.8607 3.4307 32.3108 2.88591C31.2039 2.49687 31.1319 2.47784 30.7696 2.47784C30.4071 2.47784 30.3352 2.49685 29.2283 2.88591C27.677 3.43114 27.5638 3.48546 27.6624 3.63784C27.6993 3.69492 30.3154 4.66143 30.5209 4.69391C30.8509 4.74606 31.174 4.66195 32.4936 4.18051V4.18051Z" stroke="white" stroke-width="0.761091" stroke-linecap="round" stroke-linejoin="round"/>
</svg>
