<svg xmlns="http://www.w3.org/2000/svg" xmlns:xlink="http://www.w3.org/1999/xlink"><symbol fill="none" id="arrow-long-sym" viewBox="0 0 54 15"><title>arrow-long</title><path fill-rule="evenodd" clip-rule="evenodd" d="m47.464.914 6.248 6.05a.93.93 0 0 1 0 1.344l-6.248 6.05a1.005 1.005 0 0 1-1.388 0 .93.93 0 0 1 0-1.345l4.572-4.426H0V6.685h50.648L46.076 2.26a.93.93 0 0 1 0-1.345 1.005 1.005 0 0 1 1.388 0Z" fill="#fff"/></symbol><use fill="none" xlink:href="#arrow-long-sym" width="54" height="15"/><view id="arrow-long" viewBox="0 0 54 15"/><symbol fill="none" id="arrow-short-sym" viewBox="0 0 32 32"><title>arrow-short</title><path fill-rule="evenodd" clip-rule="evenodd" d="m25.343 8.929 6.364 6.364a1 1 0 0 1 0 1.414l-6.364 6.364a1 1 0 0 1-1.414-1.414L28.586 17H0v-2h28.586l-4.657-4.657a1 1 0 0 1 1.414-1.414Z" fill="#7E7E7E"/></symbol><use fill="none" xlink:href="#arrow-short-sym" y="15" width="32" height="32"/><view id="arrow-short" viewBox="0 15 32 32"/><symbol fill="none" id="play-sym" viewBox="0 0 32 32"><title>play</title><path fill-rule="evenodd" clip-rule="evenodd" d="M14.565.038c-3.092.303-5.95 1.442-8.456 3.37-1.22.94-2.805 2.704-3.72 4.144-.396.622-1.166 2.198-1.442 2.95-.308.84-.637 2.125-.799 3.123-.197 1.22-.197 3.537 0 4.757.28 1.726.723 3.12 1.48 4.664.829 1.687 1.69 2.883 3.068 4.26 1.379 1.378 2.575 2.239 4.263 3.066 1.545.758 2.94 1.2 4.667 1.48 1.22.198 3.539.198 4.76 0 1.726-.28 3.122-.723 4.666-1.48 1.688-.827 2.884-1.688 4.263-3.066 1.379-1.377 2.24-2.573 3.068-4.26.55-1.12.826-1.855 1.122-2.98.395-1.5.495-2.322.495-4.063 0-1.74-.1-2.562-.495-4.062-.296-1.126-.572-1.86-1.122-2.98-.828-1.687-1.69-2.883-3.068-4.26-1.379-1.378-2.575-2.239-4.263-3.066a15.579 15.579 0 0 0-4.635-1.47c-.92-.145-2.976-.213-3.852-.127Zm3.445 1.42a14.99 14.99 0 0 1 5.95 2.199c1.582 1.007 3.392 2.815 4.4 4.396.902 1.415 1.637 3.17 1.984 4.737.257 1.16.333 1.892.333 3.213 0 1.724-.184 2.927-.681 4.466-.75 2.32-1.874 4.148-3.623 5.896-1.748 1.748-3.579 2.871-5.9 3.62-1.54.498-2.743.681-4.467.681-1.725 0-2.928-.183-4.468-.68-2.32-.75-4.151-1.873-5.9-3.62-2.34-2.34-3.685-5.028-4.198-8.39-.144-.943-.144-3.002 0-3.944.339-2.223 1.06-4.173 2.212-5.979C4.66 6.473 6.469 4.664 8.05 3.657c2.976-1.896 6.547-2.685 9.96-2.2Zm-5.618 7.937c-.417.185-.395-.18-.395 6.621 0 5.957.004 6.16.12 6.35.176.289.488.377.814.23.487-.22 9.579-6.112 9.657-6.259.1-.186.1-.481 0-.667-.06-.113-7.628-5.044-9.37-6.105-.398-.243-.577-.28-.825-.17Zm4.704 4.23c2.015 1.29 3.664 2.361 3.664 2.378 0 .032-7.28 4.71-7.388 4.748-.037.013-.06-1.756-.06-4.748 0-2.991.023-4.76.06-4.747a341.09 341.09 0 0 1 3.724 2.369Z" fill="#fff"/></symbol><use fill="none" xlink:href="#play-sym" y="47" width="32" height="32"/><view id="play" viewBox="0 47 32 32"/></svg>